<?xml version="1.0" encoding="UTF-8" standalone="no"?>
<svg
   xmlns:dc="http://purl.org/dc/elements/1.1/"
   xmlns:cc="http://creativecommons.org/ns#"
   xmlns:rdf="http://www.w3.org/1999/02/22-rdf-syntax-ns#"
   xmlns:svg="http://www.w3.org/2000/svg"
   xmlns="http://www.w3.org/2000/svg"
   xmlns:sodipodi="http://sodipodi.sourceforge.net/DTD/sodipodi-0.dtd"
   xmlns:inkscape="http://www.inkscape.org/namespaces/inkscape"
   width="1000"
   height="1000"
   viewBox="0 0 264.58333 264.58334"
   version="1.1"
   id="svg1238"
   inkscape:version="1.0.2 (e86c870879, 2021-01-15)"
   sodipodi:docname="q.svg">
  <defs
     id="defs1232" />
  <sodipodi:namedview
     id="base"
     pagecolor="#ffffff"
     bordercolor="#666666"
     borderopacity="1.0"
     inkscape:pageopacity="0.0"
     inkscape:pageshadow="2"
     inkscape:zoom="22.627417"
     inkscape:cx="838.1512"
     inkscape:cy="622.25347"
     inkscape:document-units="px"
     inkscape:current-layer="layer1"
     showgrid="true"
     inkscape:window-width="1920"
     inkscape:window-height="1016"
     inkscape:window-x="0"
     inkscape:window-y="27"
     inkscape:window-maximized="1"
     units="px"
     inkscape:document-rotation="0">
    <inkscape:grid
       type="xygrid"
       id="grid4524"
       empspacing="10"
       spacingx="2.6458333"
       spacingy="2.6458333"
       units="px" />
  </sodipodi:namedview>
  <metadata
     id="metadata1235">
    <rdf:RDF>
      <cc:Work
         rdf:about="">
        <dc:format>image/svg+xml</dc:format>
        <dc:type
           rdf:resource="http://purl.org/dc/dcmitype/StillImage" />
        <dc:title></dc:title>
      </cc:Work>
    </rdf:RDF>
  </metadata>
  <g
     inkscape:label="Layer 1"
     inkscape:groupmode="layer"
     id="layer1"
     transform="translate(0,-32.41665)">
    <path
       id="path4552"
       style="color:#000000;display:inline;overflow:visible;visibility:visible;opacity:0.8;fill:#008000;fill-opacity:1;fill-rule:evenodd;stroke:none;stroke-width:1;stroke-linecap:round;stroke-linejoin:miter;stroke-miterlimit:4;stroke-dasharray:4, 1;stroke-dashoffset:0;stroke-opacity:1;marker:none;enable-background:accumulate"
       d="M 500 0 A 399.99998 399.99998 0 0 0 100 400 A 399.99998 399.99998 0 0 0 500 800 A 399.99998 399.99998 0 0 0 720.5625 733.69336 L 793.43555 806.56445 L 906.57031 693.42969 L 833.69727 620.55859 A 399.99998 399.99998 0 0 0 900 400 A 399.99998 399.99998 0 0 0 500 0 z M 499.52539 150 A 250 250 0 0 1 500 150 A 250 250 0 0 1 750 400 A 250 250 0 0 1 724.04883 510.91406 L 656.56836 443.43555 L 543.43164 556.57031 L 610.91406 624.04883 A 250 250 0 0 1 500 650 A 250 250 0 0 1 250 400 A 250 250 0 0 1 499.52539 150 z "
       transform="matrix(0.26458333,0,0,0.26458333,0,32.41665)" />
  </g>
</svg>
