<?xml version="1.0" encoding="UTF-8" standalone="no"?>
<!-- Created with Inkscape (http://www.inkscape.org/) -->

<svg
   xmlns:dc="http://purl.org/dc/elements/1.1/"
   xmlns:cc="http://creativecommons.org/ns#"
   xmlns:rdf="http://www.w3.org/1999/02/22-rdf-syntax-ns#"
   xmlns:svg="http://www.w3.org/2000/svg"
   xmlns="http://www.w3.org/2000/svg"
   xmlns:sodipodi="http://sodipodi.sourceforge.net/DTD/sodipodi-0.dtd"
   xmlns:inkscape="http://www.inkscape.org/namespaces/inkscape"
   width="1000"
   height="1000"
   viewBox="0 0 264.58333 264.58334"
   version="1.1"
   id="svg1238"
   inkscape:version="0.92.1 r15371"
   sodipodi:docname="s.svg">
  <defs
     id="defs1232" />
  <sodipodi:namedview
     id="base"
     pagecolor="#ffffff"
     bordercolor="#666666"
     borderopacity="1.0"
     inkscape:pageopacity="0.0"
     inkscape:pageshadow="2"
     inkscape:zoom="0.49497475"
     inkscape:cx="959.49582"
     inkscape:cy="494.40114"
     inkscape:document-units="px"
     inkscape:current-layer="layer1"
     showgrid="true"
     inkscape:window-width="1920"
     inkscape:window-height="1149"
     inkscape:window-x="1920"
     inkscape:window-y="27"
     inkscape:window-maximized="1"
     units="px">
    <inkscape:grid
       type="xygrid"
       id="grid4524"
       empspacing="10"
       spacingx="2.6458333"
       spacingy="2.6458333"
       units="px" />
  </sodipodi:namedview>
  <metadata
     id="metadata1235">
    <rdf:RDF>
      <cc:Work
         rdf:about="">
        <dc:format>image/svg+xml</dc:format>
        <dc:type
           rdf:resource="http://purl.org/dc/dcmitype/StillImage" />
        <dc:title></dc:title>
      </cc:Work>
    </rdf:RDF>
  </metadata>
  <g
     inkscape:label="Layer 1"
     inkscape:groupmode="layer"
     id="layer1"
     transform="translate(0,-32.41665)">
    <path
       style="opacity:0.8;fill:#ff0000;fill-opacity:1;fill-rule:evenodd;stroke:none;stroke-width:1.06666672"
       d="M 339.99023,0 C 207.43847,-4.4729849e-6 100,107.53345 100,240.06055 c 1.1e-4,132.53514 107.43847,239.95898 239.99023,239.95898 h 320.01954 c 44.19204,0 80.03113,35.74152 80.03125,79.91992 0,44.17437 -35.83933,80.01953 -80.03125,80.01953 L 100,639.959 V 800.00002 L 660.00977,800 C 792.56153,800 900,692.46655 900,559.93945 899.99989,427.40432 792.56153,319.98047 660.00977,319.98047 H 339.99023 c -44.19204,0 -80.03113,-35.74151 -80.03125,-79.91992 0,-44.17437 35.83933,-80.01953 80.03125,-80.01953 L 900,160.04104 V 1.8897638e-5 Z"
       transform="matrix(0.26458333,0,0,0.26458333,0,32.41665)"
       id="path2510"
       inkscape:connector-curvature="0"
       sodipodi:nodetypes="sscccsccsscccsccs" />
  </g>
</svg>
