<?xml version="1.0" encoding="UTF-8" standalone="no"?>
<!-- Created with Inkscape (http://www.inkscape.org/) -->

<svg
   xmlns:dc="http://purl.org/dc/elements/1.1/"
   xmlns:cc="http://creativecommons.org/ns#"
   xmlns:rdf="http://www.w3.org/1999/02/22-rdf-syntax-ns#"
   xmlns:svg="http://www.w3.org/2000/svg"
   xmlns="http://www.w3.org/2000/svg"
   xmlns:sodipodi="http://sodipodi.sourceforge.net/DTD/sodipodi-0.dtd"
   xmlns:inkscape="http://www.inkscape.org/namespaces/inkscape"
   width="1000"
   height="1000"
   viewBox="0 0 264.58333 264.58334"
   version="1.1"
   id="svg1238"
   inkscape:version="0.92.1 r15371"
   sodipodi:docname="ya.svg">
  <defs
     id="defs1232" />
  <sodipodi:namedview
     id="base"
     pagecolor="#ffffff"
     bordercolor="#666666"
     borderopacity="1.0"
     inkscape:pageopacity="0.0"
     inkscape:pageshadow="2"
     inkscape:zoom="0.49497475"
     inkscape:cx="942.01476"
     inkscape:cy="298.45412"
     inkscape:document-units="px"
     inkscape:current-layer="layer1"
     showgrid="true"
     inkscape:window-width="1920"
     inkscape:window-height="1149"
     inkscape:window-x="1920"
     inkscape:window-y="27"
     inkscape:window-maximized="1"
     units="px">
    <inkscape:grid
       type="xygrid"
       id="grid2448"
       units="px"
       spacingx="2.6458333"
       spacingy="2.6458333" />
  </sodipodi:namedview>
  <metadata
     id="metadata1235">
    <rdf:RDF>
      <cc:Work
         rdf:about="">
        <dc:format>image/svg+xml</dc:format>
        <dc:type
           rdf:resource="http://purl.org/dc/dcmitype/StillImage" />
        <dc:title></dc:title>
      </cc:Work>
    </rdf:RDF>
  </metadata>
  <g
     inkscape:label="Layer 1"
     inkscape:groupmode="layer"
     id="layer1"
     transform="translate(0,-32.41665)">
    <path
       style="opacity:0.8;fill:#ff0000;fill-opacity:1;fill-rule:evenodd;stroke:none;stroke-width:1.06666672"
       d="M 339.99023 0 C 207.43846 0 100 107.53342 100 240.06055 C 100.00008 328.03384 147.34619 404.93019 217.94336 446.70312 C 192.28518 477.09533 160.6152 518.66076 139.82031 560.20117 C 99.823314 640.18191 100 800 100 800 L 260.30273 800 C 260.30273 800 260.07807 679.97904 300.125 600 C 340.11025 520.021 419.91902 480.09994 459.92188 480.10156 L 459.7168 480.01953 L 740.04102 480.01953 L 740 800 L 900 800 L 900 0 L 339.99023 0 z M 339.99023 160.04102 L 740.04102 160.04102 L 740.04102 319.98047 L 339.99023 319.98047 C 295.79818 319.98047 259.9591 284.23891 259.95898 240.06055 C 259.95898 195.88615 295.7983 160.04102 339.99023 160.04102 z "
       transform="matrix(0.26458333,0,0,0.26458333,0,32.41665)"
       id="path2576" />
  </g>
</svg>
